<svg width="24" height="24" viewBox="0 0 24 24" fill="none" xmlns="http://www.w3.org/2000/svg">
<path d="M12 14.2L7.8 10L6.4 11.4L12 17L24 5L22.6 3.6L12 14.2Z" fill="#2196F3"/>
<path d="M19.9834 12.5166C19.7148 16.6783 16.2265 20 12 20C7.6 20 4 16.4 4 12C4 7.6 7.6 4 12 4C13.8198 4 15.5027 4.61579 16.8507 5.64929L18.2731 4.22686C16.5545 2.83565 14.3701 2 12 2C6.5 2 2 6.5 2 12C2 17.5 6.5 22 12 22C17.5 22 22 17.5 22 12C22 11.5246 21.9664 11.0567 21.9014 10.5986L19.9834 12.5166Z" fill="#2196F3"/>
</svg>
