<svg width="24" height="24" viewBox="0 0 24 24" fill="none" xmlns="http://www.w3.org/2000/svg">
<g id="A-Blue">
<g id="Group">
<path id="Vector" d="M21.9145 9.52C21.8146 8.78 21.6347 8.06 21.365 7.36C21.0952 6.66 20.7454 6 20.3058 5.4C19.6863 4.54 18.8869 3.81 17.9776 3.28C17.5679 3.04 17.1382 2.84 16.6986 2.67C16.2589 2.5 15.7993 2.37 15.3496 2.27C14.4703 2.07 13.561 1.99 12.6617 2C11.7524 2.01 10.8531 2.12 9.9738 2.33C9.53414 2.44 9.10448 2.57 8.67481 2.73C8.25514 2.89 7.83546 3.08 7.43577 3.29C6.61641 3.73 5.857 4.28 5.19751 4.93C4.52803 5.58 3.95847 6.32001 3.48884 7.12001C2.61951 8.61001 2.10991 10.31 2.01998 12.03C1.97002 12.98 2.03996 13.93 2.23981 14.86C2.47962 15.96 2.8893 17.01 3.50882 17.95C3.93849 18.62 4.47807 19.22 5.0776 19.73C6.06684 20.57 7.25591 21.16 8.50494 21.53C9.87388 21.94 11.3128 22.07 12.7417 21.96C14.2005 21.85 15.6294 21.47 16.9584 20.88C17.0083 20.86 17.0483 20.84 17.0983 20.82L16.0891 19.08C15.6794 19.26 15.2497 19.42 14.82 19.55C14.2505 19.72 13.6709 19.85 13.0714 19.92C12.5518 19.99 12.0222 20.01 11.4926 20C10.963 19.98 10.4334 19.93 9.91385 19.82C9.4542 19.73 9.00455 19.61 8.56489 19.45C8.12524 19.29 7.70556 19.1 7.30587 18.86C6.94615 18.65 6.60642 18.41 6.30665 18.15C6.15676 18.02 6.01687 17.89 5.88697 17.75C5.75708 17.61 5.62718 17.46 5.50727 17.31C5.02764 16.7 4.67791 16.02 4.4381 15.3C4.19829 14.59 4.06839 13.84 4.02842 13.09C3.99844 12.51 4.02842 11.93 4.10836 11.36C4.1883 10.79 4.32819 10.22 4.51804 9.67C4.73787 9.05 5.02764 8.45 5.37737 7.89C5.73709 7.33 6.15677 6.8 6.64638 6.33C7.08604 5.91 7.58565 5.53 8.12524 5.22C8.66482 4.9 9.24437 4.65 9.85389 4.46C10.4734 4.26 11.1229 4.14 11.7724 4.07C12.4219 4 13.0814 4 13.7309 4.06C14.3704 4.12 15.0099 4.24 15.6194 4.43C16.2289 4.63 16.8085 4.9 17.3281 5.25C17.5879 5.43 17.8277 5.62 18.0475 5.84C18.2674 6.05 18.4672 6.28 18.6471 6.53C18.8469 6.79 19.0168 7.07 19.1767 7.36C19.3265 7.65 19.4564 7.94 19.5663 8.25C20.016 9.5 20.1159 10.91 19.8461 12.18C19.7162 12.76 19.5164 13.3 19.1467 13.8C18.687 14.42 17.9576 14.97 17.3281 15.05C17.1382 15.07 16.9584 15.06 16.8185 15.01C16.4987 14.91 16.3588 14.69 16.2589 14.42C16.0591 13.85 16.109 13.1 16.2489 12.03L16.4388 10.77L16.6386 9.51L16.8285 8.25L17.0083 6.99L14.86 6.86C14.3304 6.83 13.8008 6.82 13.2712 6.86C12.7417 6.89 12.2221 6.97 11.7025 7.09C11.2928 7.19 10.8931 7.32 10.5034 7.49C10.1137 7.66 9.74398 7.87 9.40424 8.11C8.82469 8.51 8.31509 9.01 7.90541 9.59C7.49573 10.16 7.18597 10.81 7.0161 11.49C6.87621 12.07 6.83624 12.68 6.91618 13.27C6.99611 13.86 7.17597 14.44 7.47574 14.96C7.74553 15.43 8.10525 15.85 8.52493 16.18C8.95459 16.51 9.44421 16.76 9.96381 16.9C10.4634 17.04 10.993 17.08 11.5026 17.04C12.0222 17 12.5318 16.87 13.0114 16.67C13.601 16.42 14.1406 16.04 14.5902 15.58C14.7301 15.83 14.9 16.07 15.1098 16.27C15.3596 16.51 15.6594 16.7 15.9891 16.84C16.199 16.93 16.4188 16.99 16.6486 17.02C16.8784 17.06 17.1083 17.07 17.3281 17.06C17.7677 17.04 18.1974 16.92 18.5971 16.75C18.9768 16.59 19.3265 16.37 19.6563 16.12C20.1859 15.71 20.6455 15.21 20.9952 14.65C21.265 14.21 21.4749 13.74 21.6347 13.25C21.7147 13 21.7746 12.74 21.8346 12.48C21.9345 12 21.9845 11.51 22.0045 11.02C21.9945 10.5 21.9745 10 21.9145 9.52ZM14.0706 12.47C13.8008 13.36 13.4411 13.9 13.0014 14.29C12.322 14.9 11.4327 15.12 10.6733 14.98C9.91385 14.84 9.27434 14.33 8.99456 13.5C8.71478 12.67 8.78472 11.52 9.75397 10.41C10.5234 9.52 11.8623 8.65 14.7201 8.82C14.4303 10.99 14.2705 11.82 14.0706 12.47Z" fill="#2196F3"/>
</g>
</g>
</svg>
