<?xml version="1.0" encoding="utf-8"?>
<!-- Generator: Adobe Illustrator 22.1.0, SVG Export Plug-In . SVG Version: 6.00 Build 0)  -->
<svg version="1.1" id="Layer_1" xmlns="http://www.w3.org/2000/svg" xmlns:xlink="http://www.w3.org/1999/xlink" x="0px" y="0px"
	 viewBox="0 0 24 24" style="enable-background:new 0 0 24 24;" xml:space="preserve">
<g>
	<defs>
		<rect id="SVGID_1_" y="0" width="24" height="24"/>
	</defs>
	<clipPath id="SVGID_2_">
		<use xlink:href="#SVGID_1_"  style="overflow:visible;"/>
	</clipPath>
	<g style="clip-path:url(#SVGID_2_);">
		<path style="fill:#2196F3;" d="M22,3H10v3H8V1h16v22H8v-2h2h12V3z"/>
		<path style="fill:#2196F3;" d="M9.5,10C9.2,10,9,10.2,9,10.5C9,10.8,9.2,11,9.5,11H17c0.6,0,1,0.4,1,1c0,0.6-0.4,1-1,1H9.5
			C9.2,13,9,13.2,9,13.5v0C9,13.8,9.2,14,9.5,14H16c0.6,0,1,0.4,1,1c0,0.6-0.4,1-1,1H9.5C9.2,16,9,16.2,9,16.5v0
			C9,16.8,9.2,17,9.5,17H15c0.6,0,1,0.4,1,1c0,0.6-0.4,1-1,1H6c-4,0-5-2-5-5v-2c0-4,2-6,5-6c0,1.1,0.9,2,2,2l8,0c0.6,0,1,0.4,1,1
			c0,0.6-0.4,1-1,1H9.5z"/>
	</g>
</g>
</svg>
