<?xml version="1.0" encoding="utf-8"?>
<!-- Generator: Adobe Illustrator 22.1.0, SVG Export Plug-In . SVG Version: 6.00 Build 0)  -->
<svg version="1.1" id="Layer_2" xmlns="http://www.w3.org/2000/svg" xmlns:xlink="http://www.w3.org/1999/xlink" x="0px" y="0px"
	 viewBox="0 0 24 24" style="enable-background:new 0 0 24 24;" xml:space="preserve">
<rect id="XMLID_2_" style="fill:none;" width="24" height="24"/>
<g>
	<path style="fill:#FFFFFF;" d="M5,4c0,4,0.3,8,0.9,11.9c0.1,0.8,0.8,1.5,1.6,1.7C9,17.9,10.5,18,12,18s3-0.1,4.5-0.4
		c0.8-0.2,1.5-0.8,1.6-1.7c0.2-1.3,0.4-2.6,0.5-3.9H20c2.2,0,4-1.8,4-4c0-2.2-1.8-4-4-4H5z M16.9,8.1c-0.1,1-0.1,2.1-0.2,3.1
		c-0.1,1.4-0.3,2.8-0.5,4.2c0,0.1,0,0.1,0,0.2c-2.7,0.5-5.5,0.5-8.2,0c0-0.1,0-0.1,0-0.2c-0.2-1.4-0.4-2.8-0.5-4.2
		c-0.1-1-0.2-2.1-0.2-3.1C7.1,7.4,7,6.7,7,6H17C17,6.7,16.9,7.4,16.9,8.1z M20,10h-1.2c0.1-1.3,0.2-2.7,0.2-4h1c1.1,0,2,0.9,2,2
		C22,9.1,21.1,10,20,10z"/>
	<g id="LINE_8_">
		<path style="fill:#FFFFFF;" d="M22,20.2V18c-6.4,2.7-13.6,2.7-20,0v2.2C8.4,22.6,15.6,22.6,22,20.2z"/>
	</g>
</g>
<g id="POLYLINE">
	<polyline style="fill:none;" points="0,24 24,24 24,0 0,0 0,24 	"/>
</g>
<rect style="fill:none;" width="24" height="24"/>
</svg>
