<?xml version="1.0" encoding="utf-8"?>
<!-- Generator: Adobe Illustrator 22.1.0, SVG Export Plug-In . SVG Version: 6.00 Build 0)  -->
<svg version="1.1" id="Layer_1" xmlns="http://www.w3.org/2000/svg" xmlns:xlink="http://www.w3.org/1999/xlink" x="0px" y="0px"
	 viewBox="0 0 24 24" style="enable-background:new 0 0 24 24;" xml:space="preserve">
<path id="XMLID_7_" style="fill:none;" d="M24,0L0,0l0,24h24V0z"/>
<path id="XMLID_3_" style="fill:none;" d="M24,0L0,0l0,24h24V0z"/>
<path id="XMLID_2_" style="fill:none;" d="M24,0L0,0l0,24h24V0z"/>
<path style="fill:#1976D2;" d="M16,5V1H2v18h6v4h14V13V5H16z M4,17V3h10v14H4z M20,21H10v-2h6V7h4V21z"/>
<polygon style="fill:#1976D2;" points="12,9 10,9 10,7 8,7 8,9 6,9 6,11 8,11 8,13 10,13 10,11 12,11 "/>
</svg>
