<?xml version="1.0" encoding="utf-8"?>
<!-- Generator: Adobe Illustrator 22.1.0, SVG Export Plug-In . SVG Version: 6.00 Build 0)  -->
<svg version="1.1" id="Layer_1" xmlns="http://www.w3.org/2000/svg" xmlns:xlink="http://www.w3.org/1999/xlink" x="0px" y="0px"
	 viewBox="0 0 24 24" style="enable-background:new 0 0 24 24;" xml:space="preserve">
<rect id="XMLID_80_" style="fill:none;" width="24" height="24"/>
<path style="fill:#505050;" d="M19,4c-2.2,0-4,1.8-4,4c0,2.2,1.8,4,4,4s4-1.8,4-4C23,5.8,21.2,4,19,4z M19,10c-1.1,0-2-0.9-2-2
	c0-1.1,0.9-2,2-2s2,0.9,2,2C21,9.1,20.1,10,19,10z"/>
<rect x="15" y="14" style="fill:#505050;" width="8" height="2"/>
<polygon style="fill:#505050;" points="3,8.1 11.5,20 13,20 13,4 11,4 11,15.9 2.5,4 1,4 1,20 3,20 "/>
</svg>
