<svg width="16" height="11" viewBox="0 0 16 11" fill="none" xmlns="http://www.w3.org/2000/svg">
<rect width="16" height="11" fill="#FCFCFC"/>
<path d="M-32.5 -0.5H16.5V22.5H-32.5V-0.5Z" fill="white" stroke="#676869"/>
<rect width="11" height="16" transform="matrix(4.37114e-08 -1 -1 -4.37114e-08 16 11)" fill="#F1EEE8"/>
<path d="M7.59344 3.40275L5.29216 5.94002C5.12572 6.12352 5.12352 6.40271 5.28704 6.58882C5.47941 6.80775 5.81968 6.80991 6.01481 6.59344L7.59109 4.84475C7.78833 4.62594 8.13104 4.62422 8.33047 4.84104L9.9498 6.60154C10.1473 6.81626 10.486 6.81688 10.6843 6.60288C10.8623 6.41079 10.8618 6.1139 10.6832 5.92236L8.32952 3.39771C8.12996 3.18366 7.79005 3.18599 7.59344 3.40275Z" fill="#505050"/>
</svg>
