<?xml version="1.0" encoding="utf-8"?>
<!-- Generator: Adobe Illustrator 22.1.0, SVG Export Plug-In . SVG Version: 6.00 Build 0)  -->
<svg version="1.1" id="Layer_1" xmlns="http://www.w3.org/2000/svg" xmlns:xlink="http://www.w3.org/1999/xlink" x="0px" y="0px"
	 viewBox="0 0 24 24" style="enable-background:new 0 0 24 24;" xml:space="preserve">
<path id="XMLID_7_" style="fill:none;" d="M24,0L0,0l0,24h24V0z"/>
<rect id="XMLID_4_" x="6" y="7" style="fill:#BABABA;" width="8" height="3"/>
<path id="XMLID_3_" style="fill:none;" d="M24,0L0,0l0,24h24V0z"/>
<path id="XMLID_2_" style="fill:none;" d="M24,0L0,0l0,24h24V0z"/>
<path style="fill:#BABABA;" d="M18,3V1H2v22h10h4h1h1v-2h4v-2V5V3H18z M16,13v8h-4H4V3h12V13z M20,19h-2v-6V5h2V19z"/>
</svg>
