<svg width="48" height="48" viewBox="0 0 48 48" fill="none" xmlns="http://www.w3.org/2000/svg">
<path d="M8 32L16 24H10C10 16.2 16.2 10 24 10C31.8 10 38 16.2 38 24C38 31.8 31.8 38 24 38C20.2 38 16.6 36.4 14.2 33.8L11.4 36.6C14.6 40 19 42 24 42C34 42 42 34 42 24C42 14 34 6 24 6C14 6 6 14 6 24H0L8 32Z" fill="#1976D2"/>
<path fill-rule="evenodd" clip-rule="evenodd" d="M21.8398 29.5984C21.5542 29.4878 21.2735 29.3539 21 29.196C20.7266 29.0382 20.4704 28.8621 20.2319 28.6701L15.854 29.8907L14.8254 28.1092L18.072 24.9277C17.9761 24.3177 17.9737 23.6911 18.0708 23.0707L14.8255 19.8904L15.8541 18.1089L20.2311 19.3293C20.7197 18.9351 21.2634 18.6241 21.8395 18.4021L22.9716 13.9996L25.0287 13.9996L26.1606 18.4014C26.446 18.512 26.7267 18.6459 27 18.8037C27.2735 18.9616 27.5298 19.1378 27.7684 19.3298L32.146 18.1092L33.1746 19.8908L29.9281 23.0722C30.0239 23.682 30.0264 24.3084 29.9293 24.9286L33.1746 28.1089L32.146 29.8904L27.7694 28.6701C27.2806 29.0644 26.7368 29.3756 26.1606 29.5976L25.0287 33.9996L22.9715 33.9996L21.8398 29.5984ZM22.5 26.598C23.9348 27.4264 25.7696 26.9348 26.598 25.4999C27.4265 24.065 26.9348 22.2302 25.5 21.4018C24.0651 20.5734 22.2303 21.065 21.4019 22.4999C20.5735 23.9348 21.0651 25.7695 22.5 26.598Z" fill="#1976D2"/>
</svg>
