<?xml version="1.0" encoding="utf-8"?>
<!-- Generator: Adobe Illustrator 22.1.0, SVG Export Plug-In . SVG Version: 6.00 Build 0)  -->
<svg version="1.1" id="Layer_1" xmlns="http://www.w3.org/2000/svg" xmlns:xlink="http://www.w3.org/1999/xlink" x="0px" y="0px"
	 viewBox="0 0 24 24" style="enable-background:new 0 0 24 24;" xml:space="preserve">
<path id="XMLID_115_" style="fill:none;" d="M0,0h24v24H0V0z"/>
<rect id="XMLID_1_" x="10" y="7" style="fill:#BABABA;" width="8" height="3"/>
<path id="XMLID_3011_" style="fill:none;" d="M0,0h24v24H0V0z"/>
<path id="XMLID_3010_" style="fill:none;" d="M0,0h24v24H0V0z"/>
<path style="fill:#BABABA;" d="M24,19.5v-1L21.8,18c-0.1-0.2-0.1-0.3-0.2-0.5s-0.2-0.3-0.3-0.4l0.6-2.2l-0.9-0.5l-1.6,1.6
	c-0.3-0.1-0.7-0.1-1,0l-1.6-1.6l-0.9,0.5l0.6,2.2c-0.2,0.3-0.4,0.5-0.5,0.8L14,18.5v1l2.2,0.5c0.1,0.2,0.1,0.3,0.2,0.5
	s0.2,0.3,0.3,0.4l-0.6,2.2l0.9,0.5l1.6-1.6c0.3,0.1,0.7,0.1,1,0l1.6,1.6l0.9-0.5l-0.6-2.2c0.2-0.3,0.4-0.5,0.5-0.8L24,19.5z
	 M19,20.5c-0.8,0-1.5-0.7-1.5-1.5s0.7-1.5,1.5-1.5s1.5,0.7,1.5,1.5S19.8,20.5,19,20.5z"/>
<path style="fill:#BABABA;" d="M4,1C2.9,1,2,1.9,2,3v18c0,1.1,0.9,2,2,2h8v-2H8V3h12v10h2V1H4z M6,21H4V3h2V21z"/>
</svg>
