<?xml version="1.0" encoding="utf-8"?>
<!-- Generator: Adobe Illustrator 22.1.0, SVG Export Plug-In . SVG Version: 6.00 Build 0)  -->
<svg version="1.1" id="Layer_1" xmlns="http://www.w3.org/2000/svg" xmlns:xlink="http://www.w3.org/1999/xlink" x="0px" y="0px"
	 viewBox="0 0 24 24" style="enable-background:new 0 0 24 24;" xml:space="preserve">
<rect id="XMLID_80_" style="fill:none;" width="24" height="24"/>
<g>
	<polygon style="fill:#505050;" points="18,9 18,1 16,1 16,9 14,9 14,1 12,1 12,11 18,11 18,13 20,13 20,9 	"/>
</g>
<g>
	<path id="XMLID_2727_" style="fill:#505050;" d="M19,18v-1c0-1.7-1.3-3-3-3s-3,1.3-3,3v1h-1v5h8v-5H19z M14.5,17
		c0-0.8,0.7-1.5,1.5-1.5s1.5,0.7,1.5,1.5v1h-3V17z"/>
</g>
<path style="fill:#505050;" d="M8.9,1L7.7,4.2L6.2,1H4l2.7,5.9L6,9H5v2h1c0.8,0,1.6-0.5,1.9-1.3L11,1H8.9z"/>
</svg>
