<?xml version="1.0" encoding="utf-8"?>
<!-- Generator: Adobe Illustrator 22.1.0, SVG Export Plug-In . SVG Version: 6.00 Build 0)  -->
<svg version="1.1" id="Layer_1" xmlns="http://www.w3.org/2000/svg" xmlns:xlink="http://www.w3.org/1999/xlink" x="0px" y="0px"
	 viewBox="0 0 24 24" style="enable-background:new 0 0 24 24;" xml:space="preserve">
<rect id="XMLID_80_" style="fill:none;" width="24" height="24"/>
<g>
	<g id="XMLID_1_">
		<path id="XMLID_4_" style="fill:#BABABA;" d="M19,18v-1c0-1.7-1.3-3-3-3s-3,1.3-3,3v1h-1v5h8v-5H19z M14.5,17
			c0-0.8,0.7-1.5,1.5-1.5s1.5,0.7,1.5,1.5v1h-3V17z"/>
		<polygon id="XMLID_3_" style="fill:#BABABA;" points="4,1 4,23 10,23 10,21 6,21 6,3 18,3 18,13 20,13 20,1 		"/>
	</g>
	<polygon style="fill:#BABABA;" points="15,9 13,9 13,7 11,7 11,9 9,9 9,11 11,11 11,13 13,13 13,11 15,11 	"/>
</g>
</svg>
