<svg width="24" height="24" viewBox="0 0 24 24" fill="none" xmlns="http://www.w3.org/2000/svg">
<g id="Eraseduser-Dark-Blue">
<g id="Group">
<path id="Vector" d="M15 12C17.21 12 19 10.21 19 8C19 5.79 17.21 4 15 4C12.79 4 11 5.79 11 8C11 10.21 12.79 12 15 12ZM15 14C12.33 14 7 15.34 7 18V20H23V18C23 15.34 17.67 14 15 14Z" fill="#1976D2"/>
<g id="Union">
<path d="M6.8125 3L7.25 3.45H9V4.35H2V3.45H3.75L4.1875 3H6.8125Z" fill="#1976D2"/>
<path fill-rule="evenodd" clip-rule="evenodd" d="M2.4375 11.1V5.25H8.5625V11.1C8.5625 11.595 8.16875 12 7.6875 12H3.3125C2.83125 12 2.4375 11.595 2.4375 11.1ZM3.49044 10.791H7.5343V6.15H3.49044V10.791Z" fill="#1976D2"/>
</g>
</g>
</g>
</svg>
