<svg width="24" height="24" viewBox="0 0 24 24" fill="none" xmlns="http://www.w3.org/2000/svg">
<g id="H-Blue">
<g id="Group">
<path id="Vector" d="M12 2C6.48 2 2 6.48 2 12C2 17.52 6.48 22 12 22C17.52 22 22 17.52 22 12C22 6.48 17.52 2 12 2ZM12 20C7.59 20 4 16.41 4 12C4 7.59 7.59 4 12 4C16.41 4 20 7.59 20 12C20 16.41 16.41 20 12 20Z" fill="#2196F3"/>
<path id="Vector_2" d="M11.2509 7.83597L10.6136 11.0855H13.7295L14.369 7.83597H16.2257L14.5881 16.164H12.7491L13.4241 12.6685H10.2927L9.61329 16.164H7.77429L9.41191 7.83597H11.2509Z" fill="#2196F3"/>
</g>
</g>
</svg>
