<?xml version="1.0" encoding="utf-8"?>
<!-- Generator: Adobe Illustrator 22.1.0, SVG Export Plug-In . SVG Version: 6.00 Build 0)  -->
<svg version="1.1" id="Layer_2" xmlns="http://www.w3.org/2000/svg" xmlns:xlink="http://www.w3.org/1999/xlink" x="0px" y="0px"
	 viewBox="0 0 24 24" style="enable-background:new 0 0 24 24;" xml:space="preserve">
<rect id="XMLID_1_" style="fill:none;" width="24" height="24"/>
<path id="XMLID_3_" style="fill:#2196F3;" d="M0,10.6"/>
<path style="fill:#2196F3;" d="M24,11.6L24,11.6c-1.9-1.7-4.1-2.9-6.5-3.7l1.5-1.5l-1.4-1.4l-2.4,2.4C14.2,7.1,13.1,7,12,7
	C7.4,7,3.2,8.8,0,11.6l0,0l1.3,1.5c1.8-1.6,4-2.8,6.3-3.5C7.2,10.3,7,11.1,7,12c0,1,0.3,2,0.8,2.8l-2.9,2.9l1.4,1.4l2.9-2.9
	C10,16.7,11,17,12,17c2.8,0,5-2.2,5-5c0-0.9-0.2-1.7-0.6-2.4c2.3,0.7,4.5,1.8,6.3,3.5L24,11.6z M9,12c0-1.7,1.3-3,3-3
	c0.5,0,0.9,0.1,1.3,0.3l-4,4C9.1,12.9,9,12.5,9,12z M12,15c-0.5,0-0.9-0.1-1.3-0.3l4-4c0.2,0.4,0.3,0.8,0.3,1.3
	C15,13.7,13.7,15,12,15z"/>
</svg>
