<svg width="17" height="21" viewBox="0 0 17 21" fill="none" xmlns="http://www.w3.org/2000/svg">
<path d="M17 5.57C16.9971 5.43834 16.9433 5.31292 16.85 5.22L11.75 0.15C11.654 0.05519 11.5249 0.0014 11.39 0L1.09 0C0.8009 0 0.523702 0.11484 0.319302 0.31925C0.114902 0.52367 0 0.80091 0 1.09L0 19.91C0 20.1991 0.114902 20.4763 0.319302 20.6807C0.523702 20.8852 0.8009 21 1.09 21L15.91 21C16.1991 21 16.4763 20.8852 16.6808 20.6807C16.8852 20.4763 17 20.1991 17 19.91L17 5.59V5.57Z" fill="white"/>
<path d="M17 5.57C16.9971 5.43834 16.9433 5.31292 16.85 5.22L11.75 0.15C11.654 0.05519 11.5249 0.0014 11.39 0L1.09 0C0.8009 0 0.523702 0.11484 0.319302 0.31925C0.114902 0.52367 0 0.80091 0 1.09L0 19.91C0 20.1991 0.114902 20.4763 0.319302 20.6807C0.523702 20.8852 0.8009 21 1.09 21L15.91 21C16.1991 21 16.4763 20.8852 16.6808 20.6807C16.8852 20.4763 17 20.1991 17 19.91L17 5.59V5.57ZM16 20C15 20 1.99999 20 1 20C0.999994 19 0.999994 2 1 1C1.99999 1 9.40094 1 11 1V4.75C11 5.08152 11.1317 5.39946 11.3661 5.63388C11.6005 5.8683 11.9185 6 12.25 6L16 6C16 8.41998 16 19 16 20Z" fill="#505050"/>
<rect x="5.53583" y="8.83813" width="9" height="1" rx="0.5" transform="rotate(45 5.53583 8.83813)" fill="#D95757"/>
<rect x="4.82874" y="15.2021" width="9" height="1" rx="0.5" transform="rotate(-45 4.82874 15.2021)" fill="#D95757"/>
</svg>
