<?xml version="1.0" encoding="utf-8"?>
<!-- Generator: Adobe Illustrator 22.1.0, SVG Export Plug-In . SVG Version: 6.00 Build 0)  -->
<svg version="1.1" id="Layer_1" xmlns="http://www.w3.org/2000/svg" xmlns:xlink="http://www.w3.org/1999/xlink" x="0px" y="0px"
	 viewBox="0 0 24 24" style="enable-background:new 0 0 24 24;" xml:space="preserve">
<rect id="XMLID_3056_" x="12" style="fill:none;" width="12" height="24"/>
<path style="fill:#BABABA;" d="M7.9,11C7.4,9.3,5.9,8,4,8c-2.2,0-4,1.8-4,4c0,2.2,1.8,4,4,4c1.9,0,3.4-1.3,3.9-3H16v3h3v-3h1v-2H7.9
	z M4,14c-1.1,0-2-0.9-2-2s0.9-2,2-2c1.1,0,2,0.9,2,2S5.1,14,4,14z"/>
<polygon style="fill:#BABABA;" points="12,0 12,8 14,8 14,2 22,2 22,22 14,22 14,16 12,16 12,24 24,24 24,0 "/>
<rect x="0" y="0" style="fill:none;" width="24" height="24"/>
</svg>
