<svg viewBox="0 0 300 300" fill="none" xmlns="http://www.w3.org/2000/svg">
<path fill-rule="evenodd" clip-rule="evenodd" d="M153.5 29.8189C132.373 29.19 117.063 41.2374 110 48C106.333 47.1667 96.2 48.7 85 61.5C73.8 74.3 80.3333 109.167 85 125C84.4006 125.766 83.5216 126.266 82.5706 126.807C78.7623 128.972 73.7983 131.795 81 155C85.5441 169.642 92.3333 172.167 95.5 171.5C95.5 171.5 102.5 198 118.5 211C119.095 220.219 116.642 229 111.5 235.5C106.358 242 89.6009 248.793 71.2736 256.072C62.0379 259.741 53.0339 263.317 46.5 266.5C30.9 274.1 19.6667 291.667 16 299.5H121.5L93.5 253H98.5L127 297.5L151 276.5C151 276.5 116.5 254 105.5 246.5C120 238.5 123 224 123 216C135.5 225 149 226.5 153.5 226.5C158 226.5 171.5 225 184 216C184 224 187 238.5 201.5 246.5C190.5 254 156 276.5 156 276.5L180 297.5L208.5 253H213.5L185.5 299.5H291C287.333 291.667 276.1 274.1 260.5 266.5C253.966 263.317 244.962 259.741 235.726 256.072C217.399 248.793 200.84 242.848 195.5 235.5C190.16 228.152 187.863 220.88 188.5 211C204.5 198 211.5 171.5 211.5 171.5C214.667 172.167 221.456 169.642 226 155C233.202 131.795 228.238 128.972 224.429 126.807C223.478 126.266 222.599 125.766 222 125C227.274 107.107 219.456 69.5 197 48C189.937 41.2374 174.627 29.19 153.5 29.8189ZM100.5 146C95.5 136 90 106.5 107.5 80.5C107.698 80.8114 107.925 81.1776 108.183 81.5933C112.478 88.5204 131 114 159.5 121.5C188 129 203.84 119.5 211.17 113.5C212.67 125 211.17 136 206.17 146L212.67 148C212.67 148 216.33 129 222 131.5C227.083 133.741 223.993 144.821 222.456 150.334C222.278 150.971 222.121 151.534 222 152C221.968 152.125 221.932 152.265 221.893 152.417C220.838 156.544 217.331 170.268 208.17 164C204 187.5 189.27 219.5 153.5 221C119.73 219.5 102.67 187.5 98.5 164C89.3392 170.268 85.8316 156.544 84.777 152.417C84.738 152.265 84.7023 152.125 84.6698 152C84.5486 151.534 84.3917 150.971 84.2141 150.334C82.6769 144.822 79.5872 133.741 84.6698 131.5C90.3396 129 94 148 94 148L100.5 146ZM137 295L131.5 299.5H141.5L137 295ZM176 299.5L170.5 295L166 299.5H176Z" fill="#BABABA"/>
</svg>
