<svg width="24" height="24" viewBox="0 0 24 24" fill="none" xmlns="http://www.w3.org/2000/svg">
<path fill-rule="evenodd" clip-rule="evenodd" d="M20 6H9.73244C9.38663 5.4022 8.74028 5 8 5C7.25972 5 6.61337 5.4022 6.26756 6H4V8H6.26756C6.61337 8.5978 7.25972 9 8 9C8.74028 9 9.38663 8.5978 9.73244 8H20V6ZM8.23262 18H4V16H8.30558C8.65945 15.4371 9.28604 15.063 10 15.063C10.714 15.063 11.3405 15.4371 11.6944 16H20V18H11.7674C11.4314 18.6324 10.766 19.063 10 19.063C9.234 19.063 8.56857 18.6324 8.23262 18ZM14.2676 13H4V11H14.2676C14.6134 10.4022 15.2597 10 16 10C16.7403 10 17.3866 10.4022 17.7324 11H20V13H17.7324C17.3866 13.5978 16.7403 14 16 14C15.2597 14 14.6134 13.5978 14.2676 13Z" fill="#2196F3"/>
</svg>
