<svg width="24" height="24" viewBox="0 0 24 24" fill="none" xmlns="http://www.w3.org/2000/svg">
<g id="Sc-White">
<g id="Group">
<path id="Vector" d="M12 2C6.48 2 2 6.48 2 12C2 17.52 6.48 22 12 22C17.52 22 22 17.52 22 12C22 6.48 17.52 2 12 2ZM12 20C7.59 20 4 16.41 4 12C4 7.59 7.59 4 12 4C16.41 4 20 7.59 20 12C20 16.41 16.41 20 12 20Z" fill="white"/>
<path id="Vector_2" d="M6.79 14.16C7.27 14.45 7.95 14.68 8.7 14.68C9.37 14.68 9.98 14.37 9.98 13.74C9.98 13.27 9.63 12.99 8.89 12.59C8.04 12.13 7.22 11.5 7.22 10.45C7.22 8.81001 8.64 7.82001 10.4 7.82001C11.39 7.82001 11.96 8.04001 12.31 8.22001L11.77 9.66001C11.51 9.51001 10.93 9.30001 10.27 9.31001C9.45 9.31001 9.03 9.71001 9.03 10.15C9.03 10.62 9.52 10.92 10.21 11.3C11.19 11.8 11.82 12.46 11.82 13.43C11.82 15.23 10.33 16.15 8.53 16.15C7.4 16.14 6.6 15.85 6.22 15.57L6.79 14.16Z" fill="white"/>
<path id="Vector_3" d="M16.9 15.84C16.53 16.02 15.93 16.15 15.23 16.15C13.78 16.15 12.76 15.26 12.76 13.75C12.76 11.66 14.36 10.03 16.59 10.03C17.09 10.03 17.53 10.13 17.79 10.22L17.36 11.55C17.15 11.47 16.91 11.4 16.57 11.4C15.35 11.4 14.58 12.44 14.58 13.55C14.58 14.35 15.1 14.76 15.73 14.76C16.23 14.76 16.59 14.64 16.89 14.52L16.9 15.84Z" fill="white"/>
</g>
</g>
</svg>
