<?xml version="1.0" encoding="utf-8"?>
<!-- Generator: Adobe Illustrator 22.1.0, SVG Export Plug-In . SVG Version: 6.00 Build 0)  -->
<svg version="1.1" id="Layer_1" xmlns="http://www.w3.org/2000/svg" xmlns:xlink="http://www.w3.org/1999/xlink" x="0px" y="0px"
	 viewBox="0 0 48 48" style="enable-background:new 0 0 48 48;" xml:space="preserve">
<rect id="XMLID_2_" style="fill:none;" width="48" height="48"/>
<g>
	<path id="XMLID_1_" style="fill:#BABABA;" d="M24,4C13,4,4,13,4,24c0,11,9,20,20,20c11,0,20-9,20-20C44,13,35,4,24,4z M24,40
		c-8.8,0-16-7.2-16-16S15.2,8,24,8s16,7.2,16,16S32.8,40,24,40z"/>
	<polygon style="fill:#BABABA;" points="19.3,32 20.6,25.5 26.8,25.5 25.6,32 28.6,32 31.7,16 28.7,16 27.4,22.5 21.2,22.5 22.4,16 
		19.4,16 16.3,32 	"/>
</g>
</svg>
