<svg width="24" height="24" viewBox="0 0 24 24" fill="none" xmlns="http://www.w3.org/2000/svg">
<g clip-path="url(#clip0_3_3)">
<path fill-rule="evenodd" clip-rule="evenodd" d="M12 2C6.47715 2 2 6.47715 2 12C2 17.5228 6.47715 22 12 22C17.5228 22 22 17.5228 22 12C22 6.47715 17.5228 2 12 2ZM0 12C0 5.37258 5.37258 0 12 0C18.6274 0 24 5.37258 24 12C24 18.6274 18.6274 24 12 24C5.37258 24 0 18.6274 0 12Z" fill="#BABABA"/>
<path d="M19.2829 3.30273L3.30249 19.2832L4.71669 20.6974L20.6971 4.71693L19.2829 3.30273Z" fill="#BABABA"/>
<path d="M12 11C13.933 11 15.5 9.433 15.5 7.5C15.5 5.567 13.933 4 12 4C10.067 4 8.5 5.567 8.5 7.5C8.5 9.433 10.067 11 12 11Z" fill="#BABABA"/>
<path d="M12 13C9.7 13 5 14.1 5 16.3V18H19V16.3C19 14.1 14.3 13 12 13Z" fill="#BABABA"/>
</g>
<defs>
<clipPath id="clip0_3_3">
<rect width="24" height="24" fill="white"/>
</clipPath>
</defs>
</svg>
