<?xml version="1.0" encoding="utf-8"?>
<!-- Generator: Adobe Illustrator 21.0.0, SVG Export Plug-In . SVG Version: 6.00 Build 0)  -->
<svg version="1.1" id="Layer_1" xmlns="http://www.w3.org/2000/svg" xmlns:xlink="http://www.w3.org/1999/xlink" x="0px" y="0px"
	 viewBox="0 0 24 24" style="enable-background:new 0 0 24 24;" xml:space="preserve">
<style type="text/css">
	.st0{fill:#FFFFFF;}
</style>
<path class="st0" d="M21.9,9.5c-0.1-0.7-0.3-1.5-0.6-2.2c-0.3-0.7-0.6-1.4-1.1-2c-0.6-0.9-1.4-1.6-2.3-2.1c-0.4-0.2-0.8-0.4-1.3-0.6
	c-0.4-0.2-0.9-0.3-1.3-0.4C14.5,2.1,13.6,2,12.7,2c-0.9,0-1.8,0.1-2.7,0.3C9.5,2.4,9.1,2.6,8.7,2.7C8.3,2.9,7.8,3.1,7.4,3.3
	c-0.8,0.4-1.6,1-2.2,1.6C4.5,5.6,4,6.3,3.5,7.1C2.6,8.6,2.1,10.3,2,12c0,0.9,0,1.9,0.2,2.8C2.5,16,2.9,17,3.5,18
	c0.4,0.7,1,1.3,1.6,1.8c1,0.8,2.2,1.4,3.4,1.8c1.4,0.4,2.8,0.5,4.2,0.4c1.5-0.1,2.9-0.5,4.2-1.1c0.1,0,0.1,0,0.1-0.1l-1-1.7
	c-0.4,0.2-0.8,0.3-1.3,0.5c-0.6,0.2-1.1,0.3-1.8,0.4C12.6,20,12,20,11.5,20c-0.5,0-1.1-0.1-1.6-0.2c-0.5-0.1-0.9-0.2-1.3-0.4
	c-0.4-0.2-0.9-0.4-1.3-0.6c-0.4-0.2-0.7-0.5-1-0.7C6.2,18,6,17.9,5.9,17.8c-0.1-0.1-0.3-0.3-0.4-0.4c-0.5-0.6-0.8-1.3-1.1-2
	c-0.2-0.7-0.4-1.5-0.4-2.2c0-0.6,0-1.2,0.1-1.7c0.1-0.6,0.2-1.1,0.4-1.7C4.7,9.1,5,8.4,5.4,7.9c0.4-0.6,0.8-1.1,1.3-1.6
	c0.4-0.4,0.9-0.8,1.5-1.1c0.5-0.3,1.1-0.6,1.7-0.8c0.6-0.2,1.3-0.3,1.9-0.4c0.7-0.1,1.3-0.1,2,0c0.6,0.1,1.3,0.2,1.9,0.4
	c0.6,0.2,1.2,0.5,1.7,0.8c0.3,0.2,0.5,0.4,0.7,0.6c0.2,0.2,0.4,0.4,0.6,0.7c0.2,0.3,0.4,0.5,0.5,0.8c0.1,0.3,0.3,0.6,0.4,0.9
	c0.5,1.3,0.5,2.7,0.3,3.9c-0.1,0.6-0.3,1.1-0.7,1.6c-0.5,0.6-1.2,1.2-1.8,1.3c-0.2,0-0.4,0-0.5,0c-0.3-0.1-0.5-0.3-0.6-0.6
	c-0.2-0.6-0.1-1.3,0-2.4l0.2-1.3l0.2-1.3l0.2-1.3L17,7l-2.2-0.1c-0.5,0-1.1,0-1.6,0c-0.5,0-1.1,0.1-1.6,0.2
	c-0.4,0.1-0.8,0.2-1.2,0.4c-0.4,0.2-0.8,0.4-1.1,0.6C8.8,8.5,8.3,9,7.9,9.6c-0.4,0.6-0.7,1.2-0.9,1.9c-0.1,0.6-0.2,1.2-0.1,1.8
	C7,13.9,7.2,14.4,7.5,15c0.3,0.5,0.6,0.9,1.1,1.2c0.4,0.3,0.9,0.6,1.4,0.7c0.5,0.1,1,0.2,1.5,0.1c0.5,0,1-0.2,1.5-0.4
	c0.6-0.3,1.1-0.6,1.6-1.1c0.1,0.3,0.3,0.5,0.5,0.7c0.3,0.2,0.6,0.4,0.9,0.6c0.2,0.1,0.4,0.1,0.7,0.2c0.2,0,0.5,0,0.7,0
	c0.4,0,0.9-0.1,1.3-0.3c0.4-0.2,0.7-0.4,1.1-0.6c0.5-0.4,1-0.9,1.3-1.5c0.3-0.4,0.5-0.9,0.6-1.4c0.1-0.3,0.1-0.5,0.2-0.8
	C22,12,22,11.5,22,11C22,10.5,22,10,21.9,9.5z M14.1,12.5c-0.3,0.9-0.6,1.4-1.1,1.8c-0.7,0.6-1.6,0.8-2.3,0.7
	c-0.8-0.1-1.4-0.6-1.7-1.5c-0.3-0.8-0.2-2,0.8-3.1c0.8-0.9,2.1-1.8,5-1.6C14.4,11,14.3,11.8,14.1,12.5z"/>
</svg>
