<svg width="24" height="24" viewBox="0 0 24 24" fill="none" xmlns="http://www.w3.org/2000/svg">
<g id="Blockeduser-White">
<g id="Group">
<path id="Vector" d="M15 12C17.21 12 19 10.21 19 8C19 5.79 17.21 4 15 4C12.79 4 11 5.79 11 8C11 10.21 12.79 12 15 12ZM15 14C12.33 14 7 15.34 7 18V20H23V18C23 15.34 17.67 14 15 14Z" fill="white"/>
<path id="Vector_2" d="M8 8V7C8 5.34 6.66 4 5 4C3.34 4 2 5.34 2 7V8H1V13H9V8H8ZM3.5 7C3.5 6.17 4.17 5.5 5 5.5C5.83 5.5 6.5 6.17 6.5 7V8H3.5V7Z" fill="white"/>
</g>
</g>
</svg>
