<?xml version="1.0" encoding="utf-8"?>
<!-- Generator: Adobe Illustrator 21.0.0, SVG Export Plug-In . SVG Version: 6.00 Build 0)  -->
<svg version="1.1" id="Layer_1" xmlns="http://www.w3.org/2000/svg" xmlns:xlink="http://www.w3.org/1999/xlink" x="0px" y="0px"
	 viewBox="0 0 24 24" style="enable-background:new 0 0 24 24;" xml:space="preserve">
<style type="text/css">
	.st0{fill:#BABABA;}
</style>
<path class="st0" d="M12,2C6.5,2,2,6.5,2,12s4.5,10,10,10s10-4.5,10-10S17.5,2,12,2z M12,20c-4.4,0-8-3.6-8-8s3.6-8,8-8s8,3.6,8,8
	S16.4,20,12,20z"/>
<path class="st0" d="M15.9,6.9l-1.3,6.7l0.8,0.1l-0.8,3.4h-1.4l0.3-2H9.2l-0.5,2H7.3l0.6-3.4l0.6-0.1c0.5-0.7,0.9-1.4,1.2-2.1
	c0.3-0.8,0.6-1.6,0.7-2.5l0.4-2.1H15.9z M11.9,9.5c-0.2,0.8-0.4,1.6-0.7,2.3c-0.3,0.6-0.6,1.2-0.9,1.7h2.6l1-5.2h-1.7L11.9,9.5z"/>
</svg>
