<?xml version="1.0" encoding="utf-8"?>
<!-- Generator: Adobe Illustrator 22.1.0, SVG Export Plug-In . SVG Version: 6.00 Build 0)  -->
<svg version="1.1" id="Layer_1" xmlns="http://www.w3.org/2000/svg" xmlns:xlink="http://www.w3.org/1999/xlink" x="0px" y="0px"
	 viewBox="0 0 24 24" style="enable-background:new 0 0 24 24;" xml:space="preserve">
<rect id="XMLID_80_" style="fill:none;" width="24" height="24"/>
<g id="ARC_5_">
	<path style="fill:#BABABA;" d="M16,8c0-1.8-1.2-3.4-3-3.9V1h-2v3.1C8.9,4.7,7.6,6.9,8.1,9c0.5,1.8,2,3,3.9,3c1.7,0,3,1.3,3,3
		s-1.3,3-3,3s-3-1.3-3-3H7c0,2.4,1.7,4.4,4,4.9V23h2v-3.1c2.7-0.6,4.5-3.2,3.9-5.9c-0.5-2.3-2.5-4-4.9-4c-1.1,0-2-0.9-2-2s0.9-2,2-2
		s2,0.9,2,2H16z"/>
</g>
</svg>
