<?xml version="1.0" encoding="utf-8"?>
<!-- Generator: Adobe Illustrator 21.0.0, SVG Export Plug-In . SVG Version: 6.00 Build 0)  -->
<svg version="1.1" id="Layer_1" xmlns="http://www.w3.org/2000/svg" xmlns:xlink="http://www.w3.org/1999/xlink" x="0px" y="0px"
	 viewBox="0 0 24 24" style="enable-background:new 0 0 24 24;" xml:space="preserve">
<style type="text/css">
	.st0{fill:#BABABA;}
</style>
<path class="st0" d="M15,12c2.2,0,4-1.8,4-4s-1.8-4-4-4s-4,1.8-4,4S12.8,12,15,12z M15,14c-2.7,0-8,1.3-8,4v2h16v-2
	C23,15.3,17.7,14,15,14z"/>
<path class="st0" d="M6.8,3l0.4,0.5H9v0.9H2V3.5h1.8L4.2,3H6.8z"/>
<path class="st0" d="M2.4,11.1V5.3h6.1v5.9c0,0.5-0.4,0.9-0.9,0.9H3.3C2.8,12,2.4,11.6,2.4,11.1z M3.5,10.8h4V6.2h-4V10.8z"/>
</svg>
