<svg width="19" height="19" viewBox="0 0 19 19" fill="none" xmlns="http://www.w3.org/2000/svg">
<path fill-rule="evenodd" clip-rule="evenodd" d="M11.4131 9.9841L18.6971 17.2691C19.0921 17.6631 19.0921 18.3031 18.6971 18.6971C18.3031 19.0911 17.6631 19.0911 17.2691 18.6971L9.98409 11.4121L2.69909 18.6971C2.30509 19.0911 1.66509 19.0911 1.27109 18.6971C0.877086 18.3031 0.877086 17.6631 1.27109 17.2691L8.55609 9.9841L1.27109 2.6991C0.877086 2.3051 0.877086 1.6651 1.27109 1.2711C1.66509 0.876104 2.30509 0.876104 2.69909 1.2711L9.98409 8.5561L17.2691 1.2711C17.6631 0.876104 18.3031 0.876104 18.6971 1.2711C19.0921 1.6651 19.0921 2.3051 18.6971 2.6991L11.4131 9.9841Z" fill="#30A0F0"/>
</svg>
