<svg id="Слой_1" data-name="Слой 1" xmlns="http://www.w3.org/2000/svg" viewBox="0 0 17 21"><defs><style>.cls-1,.cls-4{fill:#505050;}.cls-1{fill-rule:evenodd;}.cls-2{fill:#8a8a8d;}.cls-3{fill:#fff;}</style></defs><title>ES_Info+</title><path class="cls-1" d="M16.74,5.22a.51.51,0,0,1,.15.35V11.5a.5.5,0,0,1-.5.5.5.5,0,0,1-.5-.5V6H12.14a1.25,1.25,0,0,1-1.25-1.25V1h-9V20H7.4a.49.49,0,1,1,0,1H2a1.06,1.06,0,0,1-.77-.32,1.06,1.06,0,0,1-.32-.77V1.09A1.06,1.06,0,0,1,1.21.32,1.06,1.06,0,0,1,2,0h9.3a.55.55,0,0,1,.36.15Z"/><path class="cls-2" d="M8.89,17a5,5,0,1,0-5-5A5,5,0,0,0,8.89,17Z"/><path class="cls-3" d="M8.9,11.29h0a.87.87,0,0,1,.86.86v2.58a.87.87,0,0,1-.86.86h0A.86.86,0,0,1,8,14.73V12.15A.86.86,0,0,1,8.9,11.29Z"/><circle class="cls-3" cx="8.9" cy="9.36" r="0.86"/><path class="cls-4" d="M6,21h10.4a.49.49,0,0,0,0-1H6a.49.49,0,0,0,0,1Z"/><path class="cls-4" d="M16.89,20.53V9.82a.5.5,0,0,0-1,0V20.53a.5.5,0,0,0,1,0Z"/></svg>