<svg width="45" height="45" viewBox="0 0 45 45" fill="none" xmlns="http://www.w3.org/2000/svg">
<rect width="45" height="45" fill="#808080"/>
<path d="M44.9963 28L29.8942 13.1565L27.9963 16L22.9963 15L16.4963 18V26L13.524 29.2896L28.9558 45H44.9963L44.9963 28Z" fill="#5D5D5D"/>
<path fill-rule="evenodd" clip-rule="evenodd" d="M13.788 19.3118L12.1736 19.5856C11.4865 19.701 10.9869 20.2919 10.9965 20.9886L10.9965 23.0114C10.9965 23.7081 11.4962 24.299 12.1832 24.4144L13.7976 24.6834C13.9609 25.2215 14.182 25.7452 14.4462 26.2497L13.4949 27.5854C13.0913 28.1524 13.1586 28.9259 13.6486 29.416L15.0804 30.8478C15.3495 31.1169 15.705 31.2658 16.0846 31.2658C16.3825 31.2658 16.6708 31.1745 16.911 31.0016L18.2419 30.0502C18.7416 30.3145 19.2653 30.5307 19.8082 30.6989L20.0821 32.3132C20.1974 33.0003 20.7884 33.5 21.485 33.5L23.5126 33.5C24.2093 33.5 24.8002 33.0003 24.9155 32.3132L25.1846 30.6989C25.7083 30.5355 26.2176 30.3289 26.7029 30.0743L28.053 31.0352C28.2932 31.2082 28.5767 31.2995 28.8746 31.2995C29.2541 31.2995 29.6097 31.1505 29.8788 30.8814L31.3105 29.4497C31.8054 28.9596 31.8679 28.186 31.4643 27.6191L30.5178 26.3026C30.7868 25.8029 31.0078 25.2792 31.176 24.7411L32.8096 24.4624C33.4967 24.3471 33.9963 23.7561 33.9963 23.0594L33.9963 21.0367C33.9963 20.34 33.4967 19.749 32.8096 19.6337L31.2144 19.3646C31.0511 18.8217 30.8397 18.298 30.5754 17.7935L31.5364 16.4434C31.9399 15.8764 31.8727 15.1029 31.3826 14.6128L29.946 13.181C29.6818 12.9119 29.3214 12.763 28.9418 12.763C28.644 12.763 28.3557 12.8543 28.1154 13.0273L26.7942 13.9786C26.2945 13.7095 25.7708 13.4885 25.2327 13.3203L24.954 11.6868C24.8387 10.9997 24.2477 10.5 23.551 10.5L21.5283 10.5C20.8316 10.5 20.2406 10.9997 20.1253 11.6868L19.8563 13.2819C19.2941 13.4501 18.7512 13.6759 18.2323 13.9498L16.8966 12.9984C16.6564 12.8255 16.3729 12.7342 16.075 12.7342C15.6954 12.7342 15.3399 12.8831 15.0708 13.1522L13.639 14.584C13.1442 15.0741 13.0817 15.8476 13.4853 16.4146L14.4366 17.7455C14.1723 18.2451 13.9561 18.7689 13.788 19.3118ZM27.4573 21.9976C27.4573 19.2589 25.2327 17.0344 22.4941 17.0344C19.7554 17.0344 17.5309 19.2589 17.5309 21.9976C17.5309 24.7363 19.7554 26.9608 22.4941 26.9608C25.2327 26.9608 27.4573 24.7363 27.4573 21.9976Z" fill="white"/>
</svg>
