<svg width="24" height="22" viewBox="0 0 24 22" fill="none" xmlns="http://www.w3.org/2000/svg">
<path d="M17 6.57C16.9971 6.43834 16.9433 6.31292 16.85 6.22L11.75 1.15C11.654 1.05519 11.5249 1.0014 11.39 1L1.09 1C0.800914 1 0.523668 1.11484 0.319253 1.31925C0.114839 1.52367 0 1.80091 0 2.09L0 20.91C0 21.1991 0.114839 21.4763 0.319253 21.6807C0.523668 21.8852 0.800914 22 1.09 22L15.91 22C16.1991 22 16.4763 21.8852 16.6808 21.6807C16.8852 21.4763 17 21.1991 17 20.91L17 6.59V6.57Z" fill="white"/>
<path d="M17 6.57C16.9971 6.43834 16.9433 6.31292 16.85 6.22L11.75 1.15C11.654 1.05519 11.5249 1.0014 11.39 1L1.09 1C0.800914 1 0.523668 1.11484 0.319253 1.31925C0.114839 1.52367 0 1.80091 0 2.09L0 20.91C0 21.1991 0.114839 21.4763 0.319253 21.6807C0.523668 21.8852 0.800914 22 1.09 22L15.91 22C16.1991 22 16.4763 21.8852 16.6808 21.6807C16.8852 21.4763 17 21.1991 17 20.91L17 6.59V6.57ZM16 21C11.0002 21.0586 5.99996 21 1 21C1 14.3304 1 8.66073 1 1.99109C1 1.99109 7.66776 2 11 2V5.75C11 6.08152 11.1317 6.39946 11.3661 6.63388C11.6005 6.8683 11.9185 7 12.25 7L16 7C16 12 16.0001 16 16 21Z" fill="#505050"/>
<path d="M17.5 13C21.0899 13 24 10.0899 24 6.5C24 2.91015 21.0899 0 17.5 0C13.9101 0 11 2.91015 11 6.5C11 10.0899 13.9101 13 17.5 13Z" fill="white"/>
<path d="M17.5 12C20.5376 12 23 9.53757 23 6.5C23 3.46243 20.5376 1 17.5 1C14.4624 1 12 3.46243 12 6.5C12 9.53757 14.4624 12 17.5 12Z" fill="#505050"/>
<path d="M17.5 11C19.9853 11 22 8.98528 22 6.5C22 4.01472 19.9853 2 17.5 2C15.0147 2 13 4.01472 13 6.5C13 8.98528 15.0147 11 17.5 11Z" fill="white"/>
<path fill-rule="evenodd" clip-rule="evenodd" d="M17.2773 8.94824C17.3447 8.98145 17.4199 9 17.5 9C17.7764 9 18 8.77637 18 8.5V7L19.5 7C19.7764 7 20 6.77637 20 6.5C20 6.30176 19.8857 6.13086 19.7188 6.0498C19.6523 6.01758 19.5781 6 19.5 6L18 6V4.5C18 4.22363 17.7764 4 17.5 4C17.2236 4 17 4.22363 17 4.5V6H15.5C15.2236 6 15 6.22363 15 6.5C15 6.77637 15.2236 7 15.5 7H17V8.5C17 8.69629 17.1133 8.86621 17.2773 8.94824Z" fill="#505050"/>
</svg>
