<?xml version="1.0" encoding="utf-8"?>
<!-- Generator: Adobe Illustrator 21.0.0, SVG Export Plug-In . SVG Version: 6.00 Build 0)  -->
<svg version="1.1" id="Layer_1" xmlns="http://www.w3.org/2000/svg" xmlns:xlink="http://www.w3.org/1999/xlink" x="0px" y="0px"
	 viewBox="0 0 48 48" style="enable-background:new 0 0 48 48;" xml:space="preserve">
<style type="text/css">
	.st0{fill:none;}
	.st1{clip-path:url(#SVGID_2_);fill:#2196F3;}
</style>
<rect id="XMLID_80_" class="st0" width="48" height="48"/>
<g>
	<defs>
		<rect id="SVGID_1_" x="2" y="2" width="44" height="44"/>
	</defs>
	<clipPath id="SVGID_2_">
		<use xlink:href="#SVGID_1_"  style="overflow:visible;"/>
	</clipPath>
	<path class="st1" d="M16.4,22.2c-0.8-3.2-3.7-5.5-7.1-5.5c-4,0-7.3,3.3-7.3,7.3c0,4,3.3,7.3,7.3,7.3c3.4,0,6.3-2.3,7.1-5.5h14.9
		v5.5h5.5v-5.5h1.8v-3.7H16.4z M9.3,27.7c-2.1,0-3.7-1.7-3.7-3.7s1.7-3.7,3.7-3.7c2.1,0,3.7,1.7,3.7,3.7S11.3,27.7,9.3,27.7"/>
	<polygon class="st1" points="22.2,2 22.2,16.7 25.8,16.7 25.8,5.7 42.3,5.7 42.3,42.3 25.8,42.3 25.8,31.3 22.2,31.3 22.2,46 
		46,46 46,2 	"/>
</g>
</svg>
