<svg width="24" height="24" viewBox="0 0 24 24" fill="none" xmlns="http://www.w3.org/2000/svg">
<path d="M8.2 11.1C7.8 9.50001 6.35 8.35001 4.65 8.35001C2.65 8.35001 1 10 1 12C1 14 2.65 15.65 4.65 15.65C6.35 15.65 7.8 14.5 8.2 12.9H15.65V15.65H18.4V12.9H19.3V11.05H8.2V11.1ZM4.65 13.85C3.6 13.85 2.8 13 2.8 12C2.8 11 3.65 10.15 4.65 10.15C5.7 10.15 6.5 11 6.5 12C6.5 13 5.65 13.85 4.65 13.85Z" fill="#BABABA"/>
<path d="M11.1 1V8.35H12.9V2.85H21.15V21.15H12.9V15.65H11.1V23H23V1H11.1Z" fill="#BABABA"/>
</svg>
