<?xml version="1.0" encoding="utf-8"?>
<!-- Generator: Adobe Illustrator 22.1.0, SVG Export Plug-In . SVG Version: 6.00 Build 0)  -->
<svg version="1.1" id="Layer_1" xmlns="http://www.w3.org/2000/svg" xmlns:xlink="http://www.w3.org/1999/xlink" x="0px" y="0px"
	 viewBox="0 0 24 24" style="enable-background:new 0 0 24 24;" xml:space="preserve">
<path id="XMLID_3288_" style="fill:none;" d="M0,0h24v24H0V0z"/>
<path style="fill:#1976D2;" d="M19,19H5V5h5V3H5C3.9,3,3,3.9,3,5v14c0,1.1,0.9,2,2,2h14c1.1,0,2-0.9,2-2v-5h-2V19z"/>
<path style="fill:#1976D2;" d="M17,2c-2.8,0-5,2.2-5,5c0,2.8,2.2,5,5,5s5-2.2,5-5C22,4.2,19.8,2,17,2z M19.8,8.4l-1.4,1.4L17,8.4
	l-1.4,1.4l-1.4-1.4L15.6,7l-1.4-1.4l1.4-1.4L17,5.6l1.4-1.4l1.4,1.4L18.4,7L19.8,8.4z"/>
</svg>
