<?xml version="1.0" encoding="utf-8"?>
<!-- Generator: Adobe Illustrator 22.1.0, SVG Export Plug-In . SVG Version: 6.00 Build 0)  -->
<svg version="1.1" id="Layer_1" xmlns="http://www.w3.org/2000/svg" xmlns:xlink="http://www.w3.org/1999/xlink" x="0px" y="0px"
	 viewBox="0 0 24 24" style="enable-background:new 0 0 24 24;" xml:space="preserve">
<path style="fill:#1976D2;" d="M7.2,2.9C7.4,4,7.7,5.1,8.1,6.1c0.2,0.5,0.2,1.1-0.1,1.7L7.4,9.3C7,9.9,7.1,10.7,7.5,11.3
	c1.4,2.1,3.1,3.7,5.1,5.1c0.6,0.4,1.4,0.5,2.1,0.2l1.5-0.7c0.5-0.3,1.1-0.3,1.7-0.1c1.1,0.4,2.2,0.7,3.3,0.9c0.5,0.1,0.9,0.5,0.9,1
	l0,3c0,0.6-0.5,1.1-1.1,1c-9.7-1.4-17.3-9-18.7-18.7C2.1,2.5,2.6,2,3.2,2l3,0C6.8,2,7.2,2.4,7.2,2.9z"/>
<rect style="fill:none;" width="24" height="24"/>
</svg>
