<?xml version="1.0" encoding="utf-8"?>
<!-- Generator: Adobe Illustrator 22.1.0, SVG Export Plug-In . SVG Version: 6.00 Build 0)  -->
<svg version="1.1" id="Layer_1" xmlns="http://www.w3.org/2000/svg" xmlns:xlink="http://www.w3.org/1999/xlink" x="0px" y="0px"
	 viewBox="0 0 24 24" style="enable-background:new 0 0 24 24;" xml:space="preserve">
<rect id="XMLID_80_" style="fill:none;" width="24" height="24"/>
<rect id="XMLID_78_" x="8" y="7" style="fill:#BABABA;" width="8" height="2"/>
<rect id="XMLID_201_" x="8" y="11" style="fill:#BABABA;" width="8" height="2"/>
<rect id="XMLID_219_" x="8" y="15" style="fill:#BABABA;" width="8" height="2"/>
<polygon style="fill:#BABABA;" points="24,11 22,11 22,9 20,9 20,11 18,11 18,13 20,13 20,15 22,15 22,13 24,13 "/>
<polygon style="fill:#BABABA;" points="4,23 20,23 20,17 18,17 18,21 6,21 6,3 18,3 18,7 20,7 20,1 4,1 "/>
</svg>
