<?xml version="1.0" encoding="utf-8"?>
<!-- Generator: Adobe Illustrator 21.0.0, SVG Export Plug-In . SVG Version: 6.00 Build 0)  -->
<svg version="1.1" id="Layer_1" xmlns="http://www.w3.org/2000/svg" xmlns:xlink="http://www.w3.org/1999/xlink" x="0px" y="0px"
	 viewBox="0 0 24 24" style="enable-background:new 0 0 24 24;" xml:space="preserve">
<style type="text/css">
	.st0{fill:#FFFFFF;}
</style>
<path class="st0" d="M12,2C6.5,2,2,6.5,2,12s4.5,10,10,10s10-4.5,10-10S17.5,2,12,2z M12,20c-4.4,0-8-3.6-8-8s3.6-8,8-8s8,3.6,8,8
	S16.4,20,12,20z"/>
<path class="st0" d="M6.8,14.2c0.5,0.3,1.2,0.5,1.9,0.5c0.7,0,1.3-0.3,1.3-0.9c0-0.5-0.3-0.8-1.1-1.1c-0.9-0.5-1.7-1.1-1.7-2.1
	c0-1.6,1.4-2.6,3.2-2.6c1,0,1.6,0.2,1.9,0.4l-0.5,1.4c-0.3-0.2-0.8-0.4-1.5-0.4C9.4,9.3,9,9.7,9,10.1c0,0.5,0.5,0.8,1.2,1.2
	c1,0.5,1.6,1.2,1.6,2.1c0,1.8-1.5,2.7-3.3,2.7c-1.1,0-1.9-0.3-2.3-0.6L6.8,14.2z"/>
<path class="st0" d="M16.9,15.8c-0.4,0.2-1,0.3-1.7,0.3c-1.4,0-2.5-0.9-2.5-2.4c0-2.1,1.6-3.7,3.8-3.7c0.5,0,0.9,0.1,1.2,0.2
	l-0.4,1.3c-0.2-0.1-0.5-0.2-0.8-0.2c-1.2,0-2,1-2,2.2c0,0.8,0.5,1.2,1.1,1.2c0.5,0,0.9-0.1,1.2-0.2L16.9,15.8z"/>
</svg>
