<?xml version="1.0" encoding="utf-8"?>
<!-- Generator: Adobe Illustrator 22.1.0, SVG Export Plug-In . SVG Version: 6.00 Build 0)  -->
<svg version="1.1" id="Layer_1" xmlns="http://www.w3.org/2000/svg" xmlns:xlink="http://www.w3.org/1999/xlink" x="0px" y="0px"
	 viewBox="0 0 24 24" style="enable-background:new 0 0 24 24;" xml:space="preserve">
<rect id="XMLID_3056_" style="fill:none;" width="24" height="24"/>
<path style="fill:#505050;" d="M18.3,1.4c-2.8,1.3-3.1,5.2-0.5,6.9c-0.9,0.7-1.9,1.3-2.8,2c-2.5-1.8-5.1-3.6-7.6-5.4
	C6.4,4.3,5.5,4,4.4,4C3.3,4,2.2,4,1.1,4c3.8,2.7,7.6,5.3,11.4,8c-3.8,2.7-7.6,5.3-11.4,8c1.1,0,2.2,0,3.3,0c1.1,0,2-0.3,2.9-0.9
	c2.5-1.8,5.1-3.6,7.6-5.4c0.9,0.7,1.9,1.3,2.8,2c-2.6,1.7-2.3,5.6,0.5,6.9s6-0.9,5.7-4c-0.1-1.5-0.7-2.5-2-3.4
	c-1.5-1.1-3.1-2.1-4.6-3.2c1.5-1.1,3.1-2.1,4.6-3.2c1.3-0.9,1.8-1.9,2-3.4C24.3,2.3,21.1,0.1,18.3,1.4z M22,19c0,1.1-0.9,2-2,2
	c-1.1,0-2-0.9-2-2s0.9-2,2-2C21.1,17,22,17.9,22,19z M22,5c0,1.1-0.9,2-2,2c-1.1,0-2-0.9-2-2s0.9-2,2-2C21.1,3,22,3.9,22,5z"/>
</svg>
