<?xml version="1.0" encoding="utf-8"?>
<!-- Generator: Adobe Illustrator 22.1.0, SVG Export Plug-In . SVG Version: 6.00 Build 0)  -->
<svg version="1.1" id="Layer_1" xmlns="http://www.w3.org/2000/svg" xmlns:xlink="http://www.w3.org/1999/xlink" x="0px" y="0px"
	 viewBox="0 0 24 24" style="enable-background:new 0 0 24 24;" xml:space="preserve">
<rect id="XMLID_3056_" style="fill:none;" width="24" height="24"/>
<path id="XMLID_5_" style="fill:#FFFFFF;" d="M12,2C6.5,2,2,6.5,2,12c0,5.5,4.5,10,10,10c5.5,0,10-4.5,10-10C22,6.5,17.5,2,12,2z
	 M12,20c-4.4,0-8-3.6-8-8s3.6-8,8-8s8,3.6,8,8S16.4,20,12,20z"/>
<circle style="fill:#FFFFFF;" cx="8.5" cy="9.5" r="1.5"/>
<circle style="fill:#FFFFFF;" cx="15.5" cy="9.5" r="1.5"/>
<path style="fill:#FFFFFF;" d="M16.2,14.8c-0.4-0.4-1-0.4-1.4,0C14.1,15.6,13.1,16,12,16c-1.1,0-2.1-0.4-2.8-1.2
	c-0.4-0.4-1-0.4-1.4,0c-0.4,0.4-0.4,1,0,1.4C8.8,17.3,10.3,18,12,18s3.2-0.7,4.2-1.8C16.6,15.9,16.6,15.2,16.2,14.8z"/>
</svg>
