<svg viewBox="0 0 300 300" fill="none" xmlns="http://www.w3.org/2000/svg">
<path fill-rule="evenodd" clip-rule="evenodd" d="M151 272C217.826 272 272 217.826 272 151C272 84.1735 217.826 30 151 30C84.1735 30 30 84.1735 30 151C30 217.826 84.1735 272 151 272ZM151 265.4C214.181 265.4 265.4 214.181 265.4 151C265.4 87.8186 214.181 36.6 151 36.6C87.8186 36.6 36.6 87.8186 36.6 151C36.6 214.181 87.8186 265.4 151 265.4Z" fill="#BABABA"/>
<path d="M95.3046 196.647C92.8924 196.647 90.5735 197.251 88.5162 198.385C77.679 184.451 71.7306 167.142 71.7306 149.409C71.7306 105.485 107.358 69.7507 151.151 69.7507C156.475 69.7507 161.796 70.2821 166.968 71.3303C168.787 71.6995 170.565 70.5181 170.933 68.6906C171.301 66.8632 170.123 65.0832 168.301 64.7127C162.692 63.5762 156.922 63 151.151 63C128.14 63 106.505 71.9882 90.233 88.3086C73.9614 104.629 65 126.329 65 149.409C65 168.824 71.5728 187.771 83.5393 202.96C81.9986 205.269 81.1704 207.982 81.1704 210.824C81.1704 214.61 82.6414 218.17 85.3113 220.847C87.9799 223.525 91.5292 225 95.3046 225C99.08 225 102.629 223.525 105.299 220.847C107.969 218.17 109.439 214.609 109.439 210.822C109.439 207.037 107.969 203.476 105.299 200.799C102.629 198.121 99.08 196.647 95.3046 196.647V196.647ZM100.539 216.074C99.1418 217.477 97.2817 218.249 95.3046 218.249C93.3275 218.249 91.4687 217.477 90.07 216.074C88.6713 214.671 87.901 212.807 87.901 210.824C87.901 208.839 88.6713 206.975 90.07 205.572C91.4674 204.169 93.3275 203.398 95.3046 203.398C97.2817 203.398 99.1405 204.17 100.539 205.572C101.938 206.975 102.708 208.839 102.708 210.824C102.708 212.807 101.938 214.671 100.539 216.074V216.074Z" fill="#BABABA"/>
<path d="M218.431 95.0361C222.095 89.5313 221.506 82.0053 216.66 77.152C213.986 74.4754 210.432 73 206.651 73C202.87 73 199.315 74.4754 196.641 77.152C193.967 79.8298 192.495 83.3898 192.495 87.1765C192.495 90.9632 193.967 94.5232 196.641 97.201C199.315 99.8789 202.87 101.353 206.651 101.353C209.066 101.353 211.389 100.749 213.449 99.6152C224.302 113.55 230.259 130.858 230.259 148.591C230.259 192.515 194.58 228.249 150.721 228.249C145.442 228.249 140.163 227.728 135.033 226.7C133.208 226.335 131.432 227.52 131.066 229.348C130.701 231.176 131.885 232.954 133.71 233.32C139.274 234.434 144.999 235 150.721 235C173.767 235 195.434 226.012 211.73 209.691C228.025 193.371 237 171.671 237 148.591C237 129.175 230.416 110.226 218.431 95.0361V95.0361ZM201.408 92.4281C200.007 91.0252 199.236 89.1608 199.236 87.1765C199.236 85.1935 200.007 83.3291 201.408 81.9262C202.808 80.5234 204.671 79.7507 206.651 79.7507C208.631 79.7507 210.493 80.5234 211.894 81.9262C214.784 84.8217 214.784 89.5327 211.894 92.4281C210.493 93.8296 208.631 94.6023 206.651 94.6023C204.669 94.6023 202.808 93.8296 201.408 92.4281Z" fill="#BABABA"/>
<path d="M139.211 198.143C139.211 199.721 140.491 201 142.068 201H159.931C161.509 201 162.788 199.721 162.788 198.143V192.604C166.544 191.593 170.136 190.104 173.51 188.16L177.421 192.07C177.956 192.606 178.683 192.907 179.442 192.907C180.198 192.907 180.926 192.606 181.462 192.069L194.088 179.433C195.203 178.317 195.203 176.508 194.088 175.393L190.182 171.487C192.126 168.112 193.615 164.52 194.626 160.763H200.143C201.721 160.763 203 159.484 203 157.906V140.041C203 138.463 201.721 137.184 200.143 137.184H194.625C193.614 133.429 192.126 129.837 190.182 126.462L194.067 122.577C194.602 122.041 194.904 121.314 194.904 120.556C194.902 119.798 194.601 119.07 194.066 118.535L181.429 105.907C180.314 104.792 178.505 104.792 177.389 105.908L173.51 109.789C170.136 107.845 166.544 106.356 162.788 105.345V99.8571C162.788 98.279 161.509 97 159.931 97H142.068C140.491 97 139.211 98.279 139.211 99.8571V105.346C135.456 106.356 131.864 107.845 128.49 109.789L124.609 105.908C123.495 104.794 121.686 104.792 120.57 105.907L107.935 118.536C107.398 119.071 107.096 119.798 107.096 120.556C107.096 121.314 107.398 122.041 107.933 122.577L111.818 126.462C109.874 129.837 108.385 133.427 107.374 137.184H101.867C100.289 137.184 99.01 138.463 99.01 140.04L99 157.905C98.9989 158.663 99.3002 159.391 99.8359 159.926C100.372 160.462 101.098 160.763 101.857 160.763H107.374C108.385 164.52 109.874 168.112 111.818 171.487L107.912 175.393C106.797 176.508 106.796 178.317 107.912 179.433L120.538 192.069C121.074 192.605 121.801 192.907 122.558 192.907H122.559C123.317 192.907 124.044 192.606 124.579 192.07L128.489 188.16C131.864 190.104 135.456 191.593 139.211 192.604V198.143ZM129.609 182.151C128.478 181.42 126.991 181.578 126.038 182.53L122.559 186.009L113.972 177.414L117.447 173.938C118.399 172.985 118.557 171.498 117.827 170.367C115.236 166.358 113.415 161.964 112.415 157.306C112.132 155.99 110.969 155.049 109.622 155.049H104.715L104.722 142.898H109.622C110.969 142.898 112.132 141.959 112.415 140.642C113.415 135.984 115.236 131.59 117.827 127.581C118.557 126.451 118.399 124.963 117.447 124.011L113.994 120.557L122.588 111.969L126.038 115.42C126.991 116.372 128.477 116.529 129.609 115.799C133.616 113.209 138.01 111.387 142.668 110.387C143.984 110.104 144.925 108.94 144.925 107.594V102.714H157.074V107.593C157.074 108.94 158.014 110.104 159.331 110.386C163.988 111.387 168.382 113.208 172.39 115.798C173.52 116.529 175.008 116.372 175.96 115.419L179.411 111.969L188.005 120.557L184.552 124.01C183.599 124.963 183.441 126.451 184.172 127.581C186.763 131.59 188.583 135.984 189.584 140.642C189.866 141.959 191.03 142.898 192.377 142.898H197.286V155.049H192.377C191.03 155.049 189.867 155.99 189.584 157.306C188.584 161.963 186.763 166.358 184.172 170.366C183.441 171.498 183.6 172.985 184.552 173.938L188.027 177.413L179.44 186.008L175.961 182.53C175.008 181.577 173.52 181.42 172.39 182.151C168.381 184.741 163.988 186.561 159.331 187.563C158.014 187.846 157.074 189.009 157.074 190.356V195.286H144.925V190.356C144.925 189.01 143.984 187.846 142.668 187.563C138.011 186.563 133.618 184.741 129.609 182.151V182.151Z" fill="#BABABA"/>
<path d="M174 149C174 136.318 163.682 126 151 126C138.318 126 128 136.318 128 149C128 161.682 138.318 172 151 172C163.682 172 174 161.682 174 149ZM133.567 149C133.567 139.387 141.387 131.567 151 131.567C160.613 131.567 168.433 139.388 168.433 149C168.433 158.612 160.613 166.433 151 166.433C141.387 166.433 133.567 158.613 133.567 149Z" fill="#BABABA"/>
</svg>
