<?xml version="1.0" encoding="utf-8"?>
<!-- Generator: Adobe Illustrator 21.0.0, SVG Export Plug-In . SVG Version: 6.00 Build 0)  -->
<svg version="1.1" id="Layer_1" xmlns="http://www.w3.org/2000/svg" xmlns:xlink="http://www.w3.org/1999/xlink" x="0px" y="0px"
	 viewBox="0 0 24 24" style="enable-background:new 0 0 24 24;" xml:space="preserve">
<style type="text/css">
	.st0{fill:#1976D2;}
</style>
<path class="st0" d="M15,12c2.2,0,4-1.8,4-4s-1.8-4-4-4s-4,1.8-4,4S12.8,12,15,12z M15,14c-2.7,0-8,1.3-8,4v2h16v-2
	C23,15.3,17.7,14,15,14z"/>
<path class="st0" d="M8.7,5.4L8.1,4.8c-0.2-0.2-0.5-0.2-0.7,0L7.1,5.2C6.8,5,6.5,4.9,6.2,4.9L6.1,4.4C6,4.2,5.8,4,5.6,4L4.7,4.1
	c-0.2,0-0.4,0.2-0.5,0.5l0,0.5C4,5.1,3.7,5.3,3.4,5.5L3,5.2C2.8,5.1,2.5,5.1,2.3,5.3L1.8,5.9c-0.2,0.2-0.2,0.5,0,0.7L2.2,7
	C2.1,7.3,2,7.6,1.9,7.9L1.4,8C1.2,8,1,8.2,1,8.5l0.1,0.8c0,0.2,0.2,0.4,0.5,0.5l0.6,0c0.1,0.3,0.2,0.5,0.4,0.8L2.2,11
	c-0.1,0.2-0.1,0.5,0.1,0.7l0.6,0.5c0.2,0.2,0.5,0.2,0.7,0L4,11.8C4.2,11.9,4.5,12,4.8,12l0.1,0.6C5,12.8,5.2,13,5.4,13l0.8-0.1
	c0.2,0,0.4-0.2,0.5-0.5l0-0.5c0.3-0.1,0.6-0.2,0.8-0.4L8,11.8c0.2,0.1,0.5,0.1,0.7-0.1l0.5-0.6c0.2-0.2,0.2-0.5,0-0.7L8.8,10
	C9,9.7,9.1,9.4,9.1,9.1L9.6,9C9.8,9,10,8.8,10,8.5L9.9,7.7c0-0.2-0.2-0.4-0.5-0.5L9,7.2C8.9,6.9,8.7,6.7,8.5,6.4L8.8,6
	C9,5.8,8.9,5.5,8.7,5.4z M5.7,10.1C4.8,10.1,4,9.5,3.9,8.6C3.8,7.7,4.5,6.9,5.4,6.9C6.3,6.8,7,7.5,7.1,8.3C7.2,9.2,6.5,10,5.7,10.1z
	"/>
</svg>
