<?xml version="1.0" encoding="utf-8"?>
<!-- Generator: Adobe Illustrator 22.1.0, SVG Export Plug-In . SVG Version: 6.00 Build 0)  -->
<svg version="1.1" id="Layer_1" xmlns="http://www.w3.org/2000/svg" xmlns:xlink="http://www.w3.org/1999/xlink" x="0px" y="0px"
	 viewBox="0 0 24 24" style="enable-background:new 0 0 24 24;" xml:space="preserve">
<path id="XMLID_115_" style="fill:none;" d="M0,0h24v24H0V0z"/>
<path id="XMLID_108_" style="fill:#FFFFFF;" d="M8,18h4v-2H8V18z M8,13h12v-2H8V13z M8,6v2h12V6H8z"/>
<path id="XMLID_2_" style="fill:#FFFFFF;" d="M4,18h2v-2H4V18z M4,13h2v-2H4V13z M4,6v2h2V6H4z"/>
<path style="fill:#FFFFFF;" d="M24,19.5v-1L21.8,18c-0.1-0.2-0.1-0.3-0.2-0.5s-0.2-0.3-0.3-0.4l0.6-2.2l-0.9-0.5l-1.6,1.6
	c-0.3-0.1-0.7-0.1-1,0l-1.6-1.6l-0.9,0.5l0.6,2.2c-0.2,0.3-0.4,0.5-0.5,0.8L14,18.5v1l2.2,0.5c0.1,0.2,0.1,0.3,0.2,0.5
	s0.2,0.3,0.3,0.4l-0.6,2.2l0.9,0.5l1.6-1.6c0.3,0.1,0.7,0.1,1,0l1.6,1.6l0.9-0.5l-0.6-2.2c0.2-0.3,0.4-0.5,0.5-0.8L24,19.5z
	 M19,20.5c-0.8,0-1.5-0.7-1.5-1.5s0.7-1.5,1.5-1.5s1.5,0.7,1.5,1.5S19.8,20.5,19,20.5z"/>
</svg>
