<?xml version="1.0" encoding="utf-8"?>
<!-- Generator: Adobe Illustrator 22.1.0, SVG Export Plug-In . SVG Version: 6.00 Build 0)  -->
<svg version="1.1" id="Layer_2" xmlns="http://www.w3.org/2000/svg" xmlns:xlink="http://www.w3.org/1999/xlink" x="0px" y="0px"
	 viewBox="0 0 24 24" style="enable-background:new 0 0 24 24;" xml:space="preserve">
<g id="XMLID_2_">
	<path id="XMLID_3288_" style="fill:none;" d="M0,0h24v24H0V0z"/>
</g>
<path id="XMLID_108_" style="fill:#505050;" d="M14,18h10v-2H14V18z M14,13h10v-2H14V13z M14,6v2h10V6H14z"/>
<path style="fill:#505050;" d="M0,6v2h1c0-0.6,0.4-1,1-1h3v9c0,0.6-0.4,1-1,1H3v1h6v-1H8c-0.6,0-1-0.4-1-1V7h3c0.6,0,1,0.4,1,1h1V6
	H0z"/>
</svg>
